<svg id="svg" xmlns="http://www.w3.org/2000/svg" xmlns:xlink="http://www.w3.org/1999/xlink" width="400" height="400" viewBox="0, 0, 400,400"><g id="svgg"><path id="path0" d="M133.529 6.458 C 1.737 47.000,-45.501 227.185,48.309 331.525 C 98.912 387.808,151.256 403.759,155.083 364.063 C 156.781 346.454,155.117 343.739,142.583 343.665 C 113.552 343.493,99.500 335.447,81.402 308.630 C 60.218 277.243,64.948 272.288,89.640 300.000 C 109.598 322.399,151.819 327.179,158.650 307.813 C 160.772 301.797,164.147 293.359,166.150 289.063 C 168.453 284.122,164.913 281.250,156.522 281.250 C 100.022 281.250,56.261 205.431,84.375 156.250 C 89.288 147.656,93.407 128.672,93.529 114.063 C 93.768 85.313,101.196 81.011,126.869 94.750 C 144.523 104.198,255.477 104.198,273.131 94.750 C 298.804 81.011,306.232 85.313,306.471 114.063 C 306.593 128.672,310.712 147.656,315.625 156.250 C 343.596 205.179,300.007 281.250,243.999 281.250 C 230.324 281.250,227.605 287.595,237.170 297.188 C 240.426 300.453,243.942 321.406,244.982 343.750 C 247.829 404.851,290.174 399.946,351.826 331.375 C 487.521 180.449,330.017 -53.985,133.529 6.458 " stroke="none" fill="#000000" fill-rule="evenodd"></path></g></svg>