<svg id="svg" xmlns="http://www.w3.org/2000/svg" xmlns:xlink="http://www.w3.org/1999/xlink" width="400" height="400" viewBox="0, 0, 400,400"><g id="svgg"><path id="path0" d="M6.876 2.033 C 5.494 3.151,3.381 5.256,2.181 6.711 L -0.000 9.356 -0.000 200.125 L -0.000 390.894 1.100 392.194 C 1.705 392.909,2.688 394.130,3.285 394.907 C 3.882 395.685,5.459 397.148,6.790 398.160 L 9.209 400.000 200.109 400.000 L 391.008 400.000 393.604 397.941 C 395.032 396.808,397.054 394.765,398.098 393.401 L 399.997 390.919 399.999 200.147 L 400.002 9.375 398.013 6.733 C 396.919 5.280,394.852 3.171,393.421 2.046 L 390.817 -0.000 200.103 -0.000 L 9.388 -0.000 6.876 2.033 M91.100 59.094 C 90.055 59.176,88.345 59.176,87.300 59.094 C 86.255 59.012,87.110 58.944,89.200 58.944 C 91.290 58.944,92.145 59.012,91.100 59.094 M97.115 62.593 C 98.279 63.134,99.899 63.758,100.715 63.979 C 104.720 65.061,112.980 73.279,114.226 77.421 C 114.517 78.386,115.215 79.852,115.777 80.680 C 117.355 83.003,117.363 95.482,115.787 97.617 C 115.230 98.372,114.520 99.849,114.208 100.899 C 112.995 104.981,104.078 114.000,101.254 114.000 C 100.893 114.000,99.299 114.630,97.711 115.400 C 93.720 117.336,84.954 117.529,81.458 115.757 C 80.326 115.183,78.572 114.464,77.561 114.159 C 75.500 113.538,71.189 110.478,69.082 108.140 C 66.351 105.109,64.427 102.444,64.165 101.331 C 64.019 100.709,63.382 99.278,62.750 98.151 C 61.105 95.221,60.968 83.363,62.546 80.635 C 63.066 79.736,63.725 78.280,64.009 77.400 C 65.319 73.345,73.789 65.026,77.673 63.980 C 78.496 63.759,80.121 63.134,81.285 62.593 C 83.226 61.689,83.877 61.608,89.200 61.608 C 94.523 61.608,95.174 61.689,97.115 62.593 M91.100 119.494 C 90.055 119.576,88.345 119.576,87.300 119.494 C 86.255 119.412,87.110 119.344,89.200 119.344 C 91.290 119.344,92.145 119.412,91.100 119.494 M271.549 150.823 C 272.510 151.044,276.332 151.470,280.042 151.769 C 285.534 152.212,287.051 152.469,288.216 153.156 C 289.002 153.620,290.490 154.202,291.523 154.448 C 292.555 154.695,294.350 155.419,295.512 156.058 C 296.673 156.697,298.595 157.583,299.783 158.028 C 300.971 158.472,303.552 160.043,305.519 161.518 C 307.486 162.993,309.697 164.650,310.432 165.200 C 312.149 166.484,314.601 168.916,316.483 171.200 C 317.299 172.190,319.144 174.381,320.584 176.070 C 322.024 177.758,323.574 180.008,324.028 181.070 C 324.482 182.131,325.186 183.360,325.591 183.800 C 325.997 184.240,326.538 185.410,326.795 186.400 C 327.052 187.390,327.703 188.848,328.243 189.640 C 328.811 190.472,329.396 192.140,329.630 193.594 C 330.060 196.263,330.883 198.573,331.767 199.585 C 332.119 199.990,332.398 201.980,332.581 205.400 C 332.972 212.711,333.814 219.100,334.662 221.206 C 335.346 222.902,335.391 226.076,335.499 279.300 L 335.614 335.600 311.207 335.600 L 286.800 335.600 286.786 282.900 C 286.770 222.246,286.659 219.218,284.342 216.000 C 283.946 215.450,283.283 213.897,282.868 212.548 C 280.986 206.429,271.466 195.600,267.970 195.600 C 267.715 195.600,266.660 194.978,265.624 194.217 C 263.502 192.660,261.787 192.200,256.600 191.798 C 254.620 191.645,252.280 191.270,251.400 190.965 C 249.366 190.261,247.429 190.262,245.400 190.969 C 244.520 191.275,242.090 191.651,240.000 191.803 C 234.931 192.174,232.968 192.631,230.808 193.944 C 229.814 194.548,228.370 195.288,227.600 195.587 C 222.719 197.483,214.547 204.834,211.767 209.828 C 211.163 210.913,210.168 212.430,209.555 213.200 C 208.942 213.970,208.208 215.500,207.923 216.600 C 207.639 217.700,207.002 219.206,206.509 219.947 C 204.216 223.391,204.059 227.687,204.026 287.900 L 204.000 335.600 179.600 335.600 L 155.200 335.600 155.200 245.400 L 155.200 155.200 178.175 155.200 L 201.151 155.200 201.275 165.500 C 201.400 175.769,201.403 175.807,202.482 178.003 C 205.002 183.134,210.333 183.194,213.395 178.127 C 216.225 173.443,224.421 165.771,230.200 162.395 C 232.180 161.239,234.250 159.989,234.800 159.619 C 236.827 158.255,243.453 155.149,245.154 154.767 C 246.118 154.550,248.008 153.854,249.354 153.221 C 251.454 152.232,252.479 152.031,256.600 151.799 C 259.240 151.651,262.660 151.300,264.200 151.019 C 267.782 150.365,269.380 150.323,271.549 150.823 M62.700 290.868 C 62.643 316.021,62.597 295.560,62.597 245.400 C 62.597 195.240,62.643 174.661,62.700 199.668 C 62.757 224.675,62.757 265.715,62.700 290.868 M113.600 245.400 L 113.600 335.600 89.200 335.600 L 64.800 335.600 64.800 245.400 L 64.800 155.200 89.200 155.200 L 113.600 155.200 113.600 245.400 M203.476 171.500 C 203.375 171.885,203.293 171.570,203.293 170.800 C 203.293 170.030,203.375 169.715,203.476 170.100 C 203.576 170.485,203.576 171.115,203.476 171.500 M244.705 193.875 C 244.322 193.975,243.602 193.979,243.105 193.883 C 242.607 193.787,242.920 193.705,243.800 193.701 C 244.680 193.696,245.087 193.775,244.705 193.875 M284.287 229.095 C 284.195 229.703,284.117 229.300,284.114 228.200 C 284.111 227.100,284.187 226.603,284.282 227.095 C 284.377 227.586,284.379 228.486,284.287 229.095 M206.687 232.700 C 206.595 233.305,206.520 232.810,206.520 231.600 C 206.520 230.390,206.595 229.895,206.687 230.500 C 206.778 231.105,206.778 232.095,206.687 232.700 M284.700 311.269 C 284.642 325.201,284.594 313.920,284.594 286.200 C 284.594 258.480,284.642 247.081,284.700 260.869 C 284.758 274.657,284.758 297.337,284.700 311.269 " stroke="none" fill="#0c64c4" fill-rule="evenodd"></path><path id="path1" d="M87.300 59.094 C 88.345 59.176,90.055 59.176,91.100 59.094 C 92.145 59.012,91.290 58.944,89.200 58.944 C 87.110 58.944,86.255 59.012,87.300 59.094 M87.300 119.494 C 88.345 119.576,90.055 119.576,91.100 119.494 C 92.145 119.412,91.290 119.344,89.200 119.344 C 87.110 119.344,86.255 119.412,87.300 119.494 M62.597 245.400 C 62.597 295.560,62.643 316.021,62.700 290.868 C 62.757 265.715,62.757 224.675,62.700 199.668 C 62.643 174.661,62.597 195.240,62.597 245.400 M203.293 170.800 C 203.293 171.570,203.375 171.885,203.476 171.500 C 203.576 171.115,203.576 170.485,203.476 170.100 C 203.375 169.715,203.293 170.030,203.293 170.800 M243.105 193.883 C 243.602 193.979,244.322 193.975,244.705 193.875 C 245.087 193.775,244.680 193.696,243.800 193.701 C 242.920 193.705,242.607 193.787,243.105 193.883 M284.114 228.200 C 284.117 229.300,284.195 229.703,284.287 229.095 C 284.379 228.486,284.377 227.586,284.282 227.095 C 284.187 226.603,284.111 227.100,284.114 228.200 M206.520 231.600 C 206.520 232.810,206.595 233.305,206.687 232.700 C 206.778 232.095,206.778 231.105,206.687 230.500 C 206.595 229.895,206.520 230.390,206.520 231.600 M284.594 286.200 C 284.594 313.920,284.642 325.201,284.700 311.269 C 284.758 297.337,284.758 274.657,284.700 260.869 C 284.642 247.081,284.594 258.480,284.594 286.200 " stroke="none" fill="#1064c4" fill-rule="evenodd"></path><path id="path2" d="M87.300 59.094 C 88.345 59.176,90.055 59.176,91.100 59.094 C 92.145 59.012,91.290 58.944,89.200 58.944 C 87.110 58.944,86.255 59.012,87.300 59.094 M87.300 119.494 C 88.345 119.576,90.055 119.576,91.100 119.494 C 92.145 119.412,91.290 119.344,89.200 119.344 C 87.110 119.344,86.255 119.412,87.300 119.494 M62.597 245.400 C 62.597 295.560,62.643 316.021,62.700 290.868 C 62.757 265.715,62.757 224.675,62.700 199.668 C 62.643 174.661,62.597 195.240,62.597 245.400 M203.293 170.800 C 203.293 171.570,203.375 171.885,203.476 171.500 C 203.576 171.115,203.576 170.485,203.476 170.100 C 203.375 169.715,203.293 170.030,203.293 170.800 M243.105 193.883 C 243.602 193.979,244.322 193.975,244.705 193.875 C 245.087 193.775,244.680 193.696,243.800 193.701 C 242.920 193.705,242.607 193.787,243.105 193.883 M284.114 228.200 C 284.117 229.300,284.195 229.703,284.287 229.095 C 284.379 228.486,284.377 227.586,284.282 227.095 C 284.187 226.603,284.111 227.100,284.114 228.200 M206.520 231.600 C 206.520 232.810,206.595 233.305,206.687 232.700 C 206.778 232.095,206.778 231.105,206.687 230.500 C 206.595 229.895,206.520 230.390,206.520 231.600 M284.594 286.200 C 284.594 313.920,284.642 325.201,284.700 311.269 C 284.758 297.337,284.758 274.657,284.700 260.869 C 284.642 247.081,284.594 258.480,284.594 286.200 " stroke="none" fill="#1064c4" fill-rule="evenodd"></path></g></svg>